<?xml version="1.0" encoding="UTF-8" standalone="no"?>
<svg
   xmlns:dc="http://purl.org/dc/elements/1.1/"
   xmlns:cc="http://creativecommons.org/ns#"
   xmlns:rdf="http://www.w3.org/1999/02/22-rdf-syntax-ns#"
   xmlns:svg="http://www.w3.org/2000/svg"
   xmlns="http://www.w3.org/2000/svg"
   xmlns:sodipodi="http://sodipodi.sourceforge.net/DTD/sodipodi-0.dtd"
   xmlns:inkscape="http://www.inkscape.org/namespaces/inkscape"
   inkscape:version="1.0beta2 (a2ee240, 2020-03-12)"
   sodipodi:docname="ground.svg"
   id="svg4"
   viewBox="0 0 24 24"
   height="24"
   width="24"
   version="1.1">
  <metadata
     id="metadata10">
    <rdf:RDF>
      <cc:Work
         rdf:about="">
        <dc:format>image/svg+xml</dc:format>
        <dc:type
           rdf:resource="http://purl.org/dc/dcmitype/StillImage" />
      </cc:Work>
    </rdf:RDF>
  </metadata>
  <defs
     id="defs8" />
  <sodipodi:namedview
     inkscape:current-layer="svg4"
     inkscape:window-maximized="1"
     inkscape:window-y="-8"
     inkscape:window-x="-8"
     inkscape:cy="13.869817"
     inkscape:cx="7.5074999"
     inkscape:zoom="17.088414"
     showgrid="false"
     id="namedview6"
     inkscape:window-height="1017"
     inkscape:window-width="1920"
     inkscape:pageshadow="2"
     inkscape:pageopacity="0"
     guidetolerance="10"
     gridtolerance="10"
     objecttolerance="10"
     borderopacity="1"
     bordercolor="#666666"
     pagecolor="#ffffff" />
  <path
     id="path2"
     d="M9 19H15V21H9C6.24 21 4 18.76 4 16V7H6V16C6 17.66 7.34 19 9 19M10.42 5.41C11.2 4.63 11.2 3.36 10.42 2.58C9.64 1.8 8.37 1.8 7.59 2.58C6.81 3.36 6.81 4.63 7.59 5.41C8.37 6.2 9.63 6.2 10.42 5.41M11.5 9C11.5 7.9 10.6 7 9.5 7H9C7.9 7 7 7.9 7 9V15C7 16.66 8.34 18 10 18H15.07L18.57 21.5L20 20.07L14.93 15H11.5L11.5 9Z" />
</svg>
