<?xml version="1.0" encoding="UTF-8" standalone="no"?>
<svg
   xmlns:dc="http://purl.org/dc/elements/1.1/"
   xmlns:cc="http://creativecommons.org/ns#"
   xmlns:rdf="http://www.w3.org/1999/02/22-rdf-syntax-ns#"
   xmlns:svg="http://www.w3.org/2000/svg"
   xmlns="http://www.w3.org/2000/svg"
   xmlns:sodipodi="http://sodipodi.sourceforge.net/DTD/sodipodi-0.dtd"
   xmlns:inkscape="http://www.inkscape.org/namespaces/inkscape"
   inkscape:version="1.0beta2 (a2ee240, 2020-03-12)"
   sodipodi:docname="adult.svg"
   id="svg4"
   viewBox="0 0 24 24"
   height="24"
   width="24"
   version="1.1">
  <metadata
     id="metadata10">
    <rdf:RDF>
      <cc:Work
         rdf:about="">
        <dc:format>image/svg+xml</dc:format>
        <dc:type
           rdf:resource="http://purl.org/dc/dcmitype/StillImage" />
      </cc:Work>
    </rdf:RDF>
  </metadata>
  <defs
     id="defs8" />
  <sodipodi:namedview
     inkscape:current-layer="svg4"
     inkscape:window-maximized="1"
     inkscape:window-y="-8"
     inkscape:window-x="-8"
     inkscape:cy="11.953712"
     inkscape:cx="25.770151"
     inkscape:zoom="12.083333"
     showgrid="false"
     id="namedview6"
     inkscape:window-height="1017"
     inkscape:window-width="1920"
     inkscape:pageshadow="2"
     inkscape:pageopacity="0"
     guidetolerance="10"
     gridtolerance="10"
     objecttolerance="10"
     borderopacity="1"
     bordercolor="#666666"
     pagecolor="#ffffff" />
  <path
     inkscape:connector-curvature="0"
     id="path2"
     d="m 3.5,7 v 2 h 2 v 8 h 2 V 7 Z" />
  <path
     inkscape:connector-curvature="0"
     d="m 10.582759,13 h 2 v 2 h -2 m 0,-6 h 2 v 2 h -2 m 0,6 h 2 a 2,2 0 0 0 2,-2 v -1.5 a 1.5,1.5 0 0 0 -1.5,-1.5 1.5,1.5 0 0 0 1.5,-1.5 V 9 c 0,-1.11 -0.9,-2 -2,-2 h -2 a 2,2 0 0 0 -2,2 v 1.5 a 1.5,1.5 0 0 0 1.5,1.5 1.5,1.5 0 0 0 -1.5,1.5 V 15 c 0,1.11 0.9,2 2,2"
     id="path2-9" />
  <path
     d="m 20.731034,11.082759 h -2 v -2 h -2 v 2 h -2 v 2 h 2 v 2 h 2 v -2 h 2 v -2"
     id="path2-2"
     inkscape:connector-curvature="0"
     sodipodi:nodetypes="ccccccccccccc" />
</svg>
