<svg xmlns="http://www.w3.org/2000/svg" viewBox="0 0 6.35 6.35" height="24" width="24"><g transform="matrix(7.39888 0 0 7.39888 66.752 61.081)"><circle r=".102" cy="-8.118" cx="-8.487"/><rect transform="rotate(15.08)" ry=".118" rx=".118" y="-5.547" x="-10.518" height=".472" width=".177"/><rect width=".087" height=".317" x="-8.755" y="6.532" rx=".054" ry=".054" transform="matrix(.228 .97366 -.99288 .11908 0 0)"/><rect width=".084" height=".463" x="-.216" y="-11.766" rx=".054" ry=".054" transform="matrix(.66228 -.74925 .7245 .68928 0 0)" stroke="#fff" stroke-width=".009"/><rect ry=".006" rx=".054" y="-7.535" x="-8.396" height=".006" width=".001" stroke="#fff" stroke-width=".009"/><rect transform="matrix(-.94784 .31875 -.23599 -.97176 0 0)" ry=".052" rx=".054" y="9.779" x="6.439" height=".304" width=".086"/><rect transform="matrix(-.69583 .7182 -.63696 -.7709 0 0)" ry=".054" rx=".054" y="11.406" x="1.832" height=".317" width=".087"/><rect width=".087" height=".317" x="-7.552" y="7.744" rx=".054" ry=".054" transform="matrix(.1089 .99405 -1 -.00155 0 0)"/></g></svg>