<?xml version="1.0" encoding="UTF-8"?>
<svg width="24" height="24" version="1.1" viewBox="0 0 24 24" xmlns="http://www.w3.org/2000/svg">
 <path d="m4.5 3a2 2 0 0 1 2 2 2 2 0 0 1-2 2 2 2 0 0 1-2-2 2 2 0 0 1 2-2m-1.5 5h3a2 2 0 0 1 2 2v5.5h-1.5v7.5h-4v-7.5h-1.5v-5.5a2 2 0 0 1 2-2z"/>
 <path d="m19.5 3a2 2 0 0 1 2 2 2 2 0 0 1-2 2 2 2 0 0 1-2-2 2 2 0 0 1 2-2m-1.5 5h3a2 2 0 0 1 2 2v5.5h-1.5v7.5h-4v-7.5h-1.5v-5.5a2 2 0 0 1 2-2z"/>
 <path d="m10.279 1c1.375 0 2.5 0.895 2.5 2s-1.125 2-2.5 2c-0.31 0-0.6075-0.045-0.8825-0.125-0.73 0.625-1.6175 0.625-1.6175 0.625 0.5825-0.5825 0.675-0.975 0.6875-1.125-0.425-0.3575-0.6875-0.8425-0.6875-1.375 0-1.105 1.125-2 2.5-2z" stroke-width=".25"/>
</svg>
